<svg width="24" height="24" viewBox="0 0 24 24" fill="none" xmlns="http://www.w3.org/2000/svg">
<path fill-rule="evenodd" clip-rule="evenodd" d="M17 4.00012H18C19.654 4.00012 21 5.34612 21 7.00012V19.0001C21 20.6541 19.654 22.0001 18 22.0001H6C4.346 22.0001 3 20.6541 3 19.0001V7.00012C3 5.34612 4.346 4.00012 6 4.00012H7V3.00012C7 2.45012 7.45 2.00012 8 2.00012C8.55 2.00012 9 2.45012 9 3.00012V4.00012H15V3.00012C15 2.45012 15.45 2.00012 16 2.00012C16.55 2.00012 17 2.45012 17 3.00012V4.00012ZM5 11.0001H19V7.00012C19 6.44912 18.551 6.00012 18 6.00012H17V7.00012C17 7.55012 16.55 8.00012 16 8.00012C15.45 8.00012 15 7.55012 15 7.00012V6.00012H9V7.00012C9 7.55012 8.55 8.00012 8 8.00012C7.45 8.00012 7 7.55012 7 7.00012V6.00012H6C5.449 6.00012 5 6.44912 5 7.00012V11.0001ZM12 17.0001H16C16.55 17.0001 17 16.5501 17 16.0001C17 15.4501 16.55 15.0001 16 15.0001H12C11.45 15.0001 11 15.4501 11 16.0001C11 16.5501 11.45 17.0001 12 17.0001ZM8 17.0001C7.45 17.0001 7 16.5501 7 16.0001C7 15.4501 7.45 15.0001 8 15.0001C8.55 15.0001 9 15.4501 9 16.0001C9 16.5501 8.55 17.0001 8 17.0001Z" fill="#0D1C2E"/>
<mask id="mask0_367_19277" style="mask-type:luminance" maskUnits="userSpaceOnUse" x="3" y="2" width="18" height="21">
<path fill-rule="evenodd" clip-rule="evenodd" d="M17 4.00012H18C19.654 4.00012 21 5.34612 21 7.00012V19.0001C21 20.6541 19.654 22.0001 18 22.0001H6C4.346 22.0001 3 20.6541 3 19.0001V7.00012C3 5.34612 4.346 4.00012 6 4.00012H7V3.00012C7 2.45012 7.45 2.00012 8 2.00012C8.55 2.00012 9 2.45012 9 3.00012V4.00012H15V3.00012C15 2.45012 15.45 2.00012 16 2.00012C16.55 2.00012 17 2.45012 17 3.00012V4.00012ZM5 11.0001H19V7.00012C19 6.44912 18.551 6.00012 18 6.00012H17V7.00012C17 7.55012 16.55 8.00012 16 8.00012C15.45 8.00012 15 7.55012 15 7.00012V6.00012H9V7.00012C9 7.55012 8.55 8.00012 8 8.00012C7.45 8.00012 7 7.55012 7 7.00012V6.00012H6C5.449 6.00012 5 6.44912 5 7.00012V11.0001ZM12 17.0001H16C16.55 17.0001 17 16.5501 17 16.0001C17 15.4501 16.55 15.0001 16 15.0001H12C11.45 15.0001 11 15.4501 11 16.0001C11 16.5501 11.45 17.0001 12 17.0001ZM8 17.0001C7.45 17.0001 7 16.5501 7 16.0001C7 15.4501 7.45 15.0001 8 15.0001C8.55 15.0001 9 15.4501 9 16.0001C9 16.5501 8.55 17.0001 8 17.0001Z" fill="white"/>
</mask>
<g mask="url(#mask0_367_19277)">
</g>
</svg>
