<svg width="16" height="16" viewBox="0 0 16 16" fill="none" xmlns="http://www.w3.org/2000/svg">
<path d="M13 13.6667H3.00004C2.08137 13.6667 1.33337 12.9393 1.33337 12.0453V3.95466C1.33337 3.06066 2.08137 2.33333 3.00004 2.33333H6.06737C6.26671 2.33333 6.45671 2.42333 6.58337 2.57799L8.31604 4.69733H13C13.9187 4.69733 14.6667 5.42466 14.6667 6.31866V12.0453C14.6667 12.9393 13.9187 13.6667 13 13.6667Z" fill="#0D1C2E"/>
<mask id="mask0_1702_3165" style="mask-type:luminance" maskUnits="userSpaceOnUse" x="1" y="2" width="14" height="12">
<path d="M13 13.6667H3.00004C2.08137 13.6667 1.33337 12.9393 1.33337 12.0453V3.95466C1.33337 3.06066 2.08137 2.33333 3.00004 2.33333H6.06737C6.26671 2.33333 6.45671 2.42333 6.58337 2.57799L8.31604 4.69733H13C13.9187 4.69733 14.6667 5.42466 14.6667 6.31866V12.0453C14.6667 12.9393 13.9187 13.6667 13 13.6667Z" fill="white"/>
</mask>
<g mask="url(#mask0_1702_3165)">
</g>
</svg>
