<svg width="11" height="11" viewBox="0 0 11 11" fill="none" xmlns="http://www.w3.org/2000/svg">
<path d="M0.337087 8.98217C-0.0290291 9.34828 -0.0290291 9.94188 0.337087 10.308C0.703204 10.6741 1.2968 10.6741 1.66291 10.308L0.337087 8.98217ZM10.5826 0.999985C10.5826 0.482218 10.1629 0.0624854 9.6451 0.0624854L1.2076 0.0624853C0.689829 0.0624853 0.270095 0.482218 0.270095 0.999985C0.270095 1.51775 0.689829 1.93749 1.2076 1.93749L8.7076 1.93749L8.7076 9.43749C8.7076 9.95525 9.12733 10.375 9.6451 10.375C10.1629 10.375 10.5826 9.95525 10.5826 9.43749L10.5826 0.999985ZM1.66291 10.308L10.308 1.6629L8.98218 0.337073L0.337087 8.98217L1.66291 10.308Z" fill="#141414"/>
</svg>
