<svg width="16" height="16" viewBox="0 0 16 16" fill="none" xmlns="http://www.w3.org/2000/svg">
<path fill-rule="evenodd" clip-rule="evenodd" d="M10 2H12.6667C13.402 2 14 2.598 14 3.33333V6C14 6.73533 13.402 7.33333 12.6667 7.33333H10C9.26467 7.33333 8.66667 6.73533 8.66667 6V3.33333C8.66667 2.598 9.26467 2 10 2ZM10 6V3.33333H12.6667L12.6673 6H10ZM3.33333 8.66667H6C6.73533 8.66667 7.33333 9.26467 7.33333 10V12.6667C7.33333 13.402 6.73533 14 6 14H3.33333C2.598 14 2 13.402 2 12.6667V10C2 9.26467 2.598 8.66667 3.33333 8.66667ZM10 8.66667H12.6667C13.402 8.66667 14 9.26467 14 10V12.6667C14 13.402 13.402 14 12.6667 14H10C9.26467 14 8.66667 13.402 8.66667 12.6667V10C8.66667 9.26467 9.26467 8.66667 10 8.66667ZM10 10V12.6667H12.6673L12.6667 10H10ZM3.33333 12.6667V10H6L6.00067 12.6667H3.33333ZM3.33333 6V3.33333H6L6.00067 6H3.33333ZM3.33333 2H6C6.73533 2 7.33333 2.598 7.33333 3.33333V6C7.33333 6.73533 6.73533 7.33333 6 7.33333H3.33333C2.598 7.33333 2 6.73533 2 6V3.33333C2 2.598 2.598 2 3.33333 2Z" fill="#F9FAFB"/>
<mask id="mask0_1702_3117" style="mask-type:luminance" maskUnits="userSpaceOnUse" x="2" y="2" width="12" height="12">
<path fill-rule="evenodd" clip-rule="evenodd" d="M10 2H12.6667C13.402 2 14 2.598 14 3.33333V6C14 6.73533 13.402 7.33333 12.6667 7.33333H10C9.26467 7.33333 8.66667 6.73533 8.66667 6V3.33333C8.66667 2.598 9.26467 2 10 2ZM10 6V3.33333H12.6667L12.6673 6H10ZM3.33333 8.66667H6C6.73533 8.66667 7.33333 9.26467 7.33333 10V12.6667C7.33333 13.402 6.73533 14 6 14H3.33333C2.598 14 2 13.402 2 12.6667V10C2 9.26467 2.598 8.66667 3.33333 8.66667ZM10 8.66667H12.6667C13.402 8.66667 14 9.26467 14 10V12.6667C14 13.402 13.402 14 12.6667 14H10C9.26467 14 8.66667 13.402 8.66667 12.6667V10C8.66667 9.26467 9.26467 8.66667 10 8.66667ZM10 10V12.6667H12.6673L12.6667 10H10ZM3.33333 12.6667V10H6L6.00067 12.6667H3.33333ZM3.33333 6V3.33333H6L6.00067 6H3.33333ZM3.33333 2H6C6.73533 2 7.33333 2.598 7.33333 3.33333V6C7.33333 6.73533 6.73533 7.33333 6 7.33333H3.33333C2.598 7.33333 2 6.73533 2 6V3.33333C2 2.598 2.598 2 3.33333 2Z" fill="white"/>
</mask>
<g mask="url(#mask0_1702_3117)">
</g>
</svg>
