<svg width="16" height="16" viewBox="0 0 16 16" fill="none" xmlns="http://www.w3.org/2000/svg">
<path fill-rule="evenodd" clip-rule="evenodd" d="M6.00004 7.33333C7.47071 7.33333 8.66671 6.13733 8.66671 4.66667C8.66671 3.196 7.47071 2 6.00004 2C4.52937 2 3.33337 3.196 3.33337 4.66667C3.33337 6.13733 4.52937 7.33333 6.00004 7.33333ZM11.3334 8.66667C12.436 8.66667 13.3334 7.76933 13.3334 6.66667C13.3334 5.564 12.436 4.66667 11.3334 4.66667C10.2307 4.66667 9.33337 5.564 9.33337 6.66667C9.33337 7.76933 10.2307 8.66667 11.3334 8.66667ZM14.6667 12.6667C14.6667 13.0347 14.3687 13.3333 14 13.3333H10.6667C10.6667 13.7013 10.3687 14 10 14H2.00004C1.63137 14 1.33337 13.7013 1.33337 13.3333C1.33337 10.76 3.42737 8.66667 6.00004 8.66667C7.28471 8.66667 8.44871 9.18867 9.29337 10.0307C9.87271 9.58267 10.586 9.33333 11.3334 9.33333C13.1714 9.33333 14.6667 10.8287 14.6667 12.6667Z" fill="#0D1C2E"/>
<mask id="mask0_1702_3140" style="mask-type:luminance" maskUnits="userSpaceOnUse" x="1" y="2" width="14" height="12">
<path fill-rule="evenodd" clip-rule="evenodd" d="M6.00004 7.33333C7.47071 7.33333 8.66671 6.13733 8.66671 4.66667C8.66671 3.196 7.47071 2 6.00004 2C4.52937 2 3.33337 3.196 3.33337 4.66667C3.33337 6.13733 4.52937 7.33333 6.00004 7.33333ZM11.3334 8.66667C12.436 8.66667 13.3334 7.76933 13.3334 6.66667C13.3334 5.564 12.436 4.66667 11.3334 4.66667C10.2307 4.66667 9.33337 5.564 9.33337 6.66667C9.33337 7.76933 10.2307 8.66667 11.3334 8.66667ZM14.6667 12.6667C14.6667 13.0347 14.3687 13.3333 14 13.3333H10.6667C10.6667 13.7013 10.3687 14 10 14H2.00004C1.63137 14 1.33337 13.7013 1.33337 13.3333C1.33337 10.76 3.42737 8.66667 6.00004 8.66667C7.28471 8.66667 8.44871 9.18867 9.29337 10.0307C9.87271 9.58267 10.586 9.33333 11.3334 9.33333C13.1714 9.33333 14.6667 10.8287 14.6667 12.6667Z" fill="white"/>
</mask>
<g mask="url(#mask0_1702_3140)">
</g>
</svg>
