<svg width="16" height="16" viewBox="0 0 16 16" fill="none" xmlns="http://www.w3.org/2000/svg">
<path fill-rule="evenodd" clip-rule="evenodd" d="M10.6667 4.66667C10.6667 6.13733 9.47071 7.33333 8.00004 7.33333C6.52937 7.33333 5.33337 6.13733 5.33337 4.66667C5.33337 3.196 6.52937 2 8.00004 2C9.47071 2 10.6667 3.196 10.6667 4.66667ZM12.6667 13.3333C12.6667 13.7013 12.3687 14 12 14H4.00004C3.63137 14 3.33337 13.7013 3.33337 13.3333C3.33337 10.76 5.42737 8.66667 8.00004 8.66667C10.5727 8.66667 12.6667 10.76 12.6667 13.3333Z" fill="#1F2937"/>
<mask id="mask0_1702_3173" style="mask-type:luminance" maskUnits="userSpaceOnUse" x="3" y="2" width="10" height="12">
<path fill-rule="evenodd" clip-rule="evenodd" d="M10.6667 4.66667C10.6667 6.13733 9.47071 7.33333 8.00004 7.33333C6.52937 7.33333 5.33337 6.13733 5.33337 4.66667C5.33337 3.196 6.52937 2 8.00004 2C9.47071 2 10.6667 3.196 10.6667 4.66667ZM12.6667 13.3333C12.6667 13.7013 12.3687 14 12 14H4.00004C3.63137 14 3.33337 13.7013 3.33337 13.3333C3.33337 10.76 5.42737 8.66667 8.00004 8.66667C10.5727 8.66667 12.6667 10.76 12.6667 13.3333Z" fill="white"/>
</mask>
<g mask="url(#mask0_1702_3173)">
</g>
</svg>
