<svg width="16" height="16" viewBox="0 0 16 16" fill="none" xmlns="http://www.w3.org/2000/svg">
<path d="M12.444 4.50933C12.3879 4.50151 12.3318 4.50151 12.2757 4.50933C11.034 4.47025 10.0486 3.47773 10.0486 2.25857C10.0486 1.01597 11.082 0 12.3639 0C13.6377 0 14.6791 1.00815 14.6791 2.25857C14.6711 3.47773 13.6857 4.47025 12.444 4.50933Z" fill="#292D32"/>
<path d="M15.0577 9.92552C14.1604 10.5117 12.9026 10.7305 11.741 10.582C12.0454 9.94115 12.2056 9.22997 12.2137 8.47972C12.2137 7.69821 12.0374 6.95577 11.7009 6.30712C12.8866 6.15081 14.1444 6.36964 15.0497 6.95577C16.3155 7.76855 16.3155 9.10493 15.0577 9.92552Z" fill="#292D32"/>
<path d="M3.56028 4.50933C3.61636 4.50151 3.67244 4.50151 3.72852 4.50933C4.97027 4.47025 5.95567 3.47773 5.95567 2.25857C5.95567 1.00815 4.9222 0 3.64039 0C2.36659 0 1.33313 1.00815 1.33313 2.25857C1.33313 3.47773 2.31852 4.47025 3.56028 4.50933Z" fill="#292D32"/>
<path d="M3.64916 8.47987C3.64916 9.23794 3.8174 9.95693 4.12183 10.6056C2.99223 10.7228 1.81457 10.4884 0.949342 9.93348C-0.316447 9.1129 -0.316447 7.77651 0.949342 6.95592C1.80655 6.39323 3.01626 6.16659 4.15387 6.29164C3.82541 6.94811 3.64916 7.69054 3.64916 8.47987Z" fill="#292D32"/>
<path d="M8.11128 10.8396C8.04719 10.8318 7.97509 10.8318 7.90299 10.8396C6.4289 10.7927 5.25122 9.6126 5.25122 8.15898C5.25923 6.67411 6.48498 5.47058 8.01514 5.47058C9.5373 5.47058 10.771 6.67411 10.771 8.15898C10.763 9.6126 9.59338 10.7927 8.11128 10.8396Z" fill="#292D32"/>
<path d="M5.5075 12.4578C4.29779 13.2471 4.29779 14.5444 5.5075 15.3259C6.88547 16.2247 9.14466 16.2247 10.5226 15.3259C11.7323 14.5366 11.7323 13.2393 10.5226 12.4578C9.15267 11.5591 6.89348 11.5591 5.5075 12.4578Z" fill="#292D32"/>
</svg>
